<?xml version="1.0" standalone="no"?><!DOCTYPE svg PUBLIC "-//W3C//DTD SVG 1.1//EN" "http://www.w3.org/Graphics/SVG/1.1/DTD/svg11.dtd"><svg class="icon" viewBox="0 0 1024 1024" version="1.1" xmlns="http://www.w3.org/2000/svg"  xmlns:xlink="http://www.w3.org/1999/xlink" width="256" height="256"><path d="M735.274667 447.146667c134.4 85.418667 185.6 171.52 185.6 234.666666 0 59.008-25.088 115.925333-120.106667 198.058667-63.317333 54.741333-143.232 88.192-239.744 100.266667-112.64 3.626667-189.696-1.109333-231.125333-14.122667-113.706667-35.797333-177.152-119.637333-180.394667-225.194667-7.594667-244.949333 173.354667-318.165333 198.058667-327.338666 24.746667-9.173333 253.269333-51.797333 387.712 33.621333z m178.261333-289.877334c81.792 92.586667 100.565333 181.76 109.696 288.512 9.130667 106.709333-65.578667 218.325333-99.797333 153.898667-15.274667-28.8-50.645333-88.149333-128.469334-145.664-21.930667-16.213333-64.170667-37.76-126.72-64.554667L788.053333 182.613333c29.098667-78.677333 70.912-87.168 125.44-25.386666z m-327.381333-13.952a17848.832 17848.832 0 0 0-22.528 231.936c-109.866667-9.856-196.608 0.256-260.138667 30.421334-63.573333 30.165333-111.018667 83.669333-142.293333 160.512-90.325333 14.848-143.146667-10.581333-158.506667-76.288-13.141333-56.149333 22.570667-157.44 91.946667-248.064C146.986667 173.525333 235.093333 94.122667 348.245333 62.848c143.616-39.68 248.789333-24.874667 237.909334 80.469333z" fill="#ffa32f"></path></svg>